<mxfile host="Electron" agent="Mozilla/5.0 (Windows NT 10.0; Win64; x64) AppleWebKit/537.36 (KHTML, like Gecko) draw.io/27.0.9 Chrome/134.0.6998.205 Electron/35.4.0 Safari/537.36" version="27.0.9" pages="2">
  <diagram name="Signal-Decoder" id="cNfJuhhYIB4rDF67hnx8">
    <mxGraphModel dx="3157" dy="1272" grid="1" gridSize="10" guides="1" tooltips="1" connect="1" arrows="1" fold="1" page="1" pageScale="1" pageWidth="1169" pageHeight="827" math="0" shadow="0">
      <root>
        <mxCell id="0" />
        <mxCell id="1" parent="0" />
        <mxCell id="-gKWWm9pX0lXrhywK45k-1" value="&lt;h1&gt;DCF77 Signal Decoder&lt;/h1&gt;" style="swimlane;whiteSpace=wrap;html=1;fontFamily=Courier New;fontSize=17;" vertex="1" parent="1">
          <mxGeometry x="10" y="40" width="1140" height="772" as="geometry" />
        </mxCell>
        <mxCell id="-gKWWm9pX0lXrhywK45k-3" value="&lt;h2&gt;DCF77 Signal Decoding&lt;/h2&gt;" style="swimlane;whiteSpace=wrap;html=1;fontFamily=Courier New;" vertex="1" parent="-gKWWm9pX0lXrhywK45k-1">
          <mxGeometry x="300" y="60" width="800" height="688" as="geometry" />
        </mxCell>
        <mxCell id="-gKWWm9pX0lXrhywK45k-11" style="edgeStyle=orthogonalEdgeStyle;rounded=0;orthogonalLoop=1;jettySize=auto;html=1;exitX=1;exitY=0.5;exitDx=0;exitDy=0;entryX=0.5;entryY=0;entryDx=0;entryDy=0;curved=1;fontFamily=Courier New;" edge="1" parent="-gKWWm9pX0lXrhywK45k-3" source="-gKWWm9pX0lXrhywK45k-8" target="-gKWWm9pX0lXrhywK45k-8">
          <mxGeometry relative="1" as="geometry">
            <mxPoint x="233" y="66" as="targetPoint" />
            <Array as="points">
              <mxPoint x="210" y="153" />
              <mxPoint x="210" y="40" />
              <mxPoint x="97" y="40" />
            </Array>
          </mxGeometry>
        </mxCell>
        <mxCell id="-gKWWm9pX0lXrhywK45k-12" value="Not&lt;div&gt;Yet&lt;/div&gt;" style="edgeLabel;html=1;align=center;verticalAlign=middle;resizable=0;points=[];fontFamily=Courier New;fontSize=19;" vertex="1" connectable="0" parent="-gKWWm9pX0lXrhywK45k-11">
          <mxGeometry x="-0.2182" y="4" relative="1" as="geometry">
            <mxPoint x="-46" y="1" as="offset" />
          </mxGeometry>
        </mxCell>
        <mxCell id="-gKWWm9pX0lXrhywK45k-8" value="&lt;span style=&quot;&quot;&gt;Wait&lt;/span&gt;&lt;div style=&quot;&quot;&gt;for&lt;/div&gt;&lt;div style=&quot;&quot;&gt;Minute End&lt;/div&gt;" style="ellipse;whiteSpace=wrap;html=1;aspect=fixed;fontSize=17;fontFamily=Courier New;" vertex="1" parent="-gKWWm9pX0lXrhywK45k-3">
          <mxGeometry x="50" y="106" width="94" height="94" as="geometry" />
        </mxCell>
        <mxCell id="-gKWWm9pX0lXrhywK45k-4" value="Sample&#xa;Signal" style="ellipse;fontFamily=Courier New;fontSize=17;strokeColor=default;align=center;verticalAlign=middle;fontColor=default;fillColor=default;" vertex="1" parent="-gKWWm9pX0lXrhywK45k-3">
          <mxGeometry x="-290" y="108.58" width="95" height="88" as="geometry" />
        </mxCell>
        <mxCell id="-gKWWm9pX0lXrhywK45k-6" style="edgeStyle=orthogonalEdgeStyle;rounded=0;orthogonalLoop=1;jettySize=auto;html=1;exitX=1;exitY=0.5;exitDx=0;exitDy=0;entryX=0;entryY=0.5;entryDx=0;entryDy=0;fontFamily=Courier New;" edge="1" parent="-gKWWm9pX0lXrhywK45k-3" source="-gKWWm9pX0lXrhywK45k-4" target="-gKWWm9pX0lXrhywK45k-8">
          <mxGeometry relative="1" as="geometry">
            <mxPoint x="80" y="74" as="targetPoint" />
          </mxGeometry>
        </mxCell>
        <mxCell id="-gKWWm9pX0lXrhywK45k-7" value="INVLAD&lt;div&gt;RESET&lt;/div&gt;&lt;div&gt;MINUTE_START&lt;/div&gt;" style="edgeLabel;html=1;align=center;verticalAlign=middle;resizable=0;points=[];fontFamily=Courier New;fontSize=17;" vertex="1" connectable="0" parent="-gKWWm9pX0lXrhywK45k-6">
          <mxGeometry x="-0.1333" y="-1" relative="1" as="geometry">
            <mxPoint x="-12" as="offset" />
          </mxGeometry>
        </mxCell>
        <mxCell id="-gKWWm9pX0lXrhywK45k-9" style="edgeStyle=orthogonalEdgeStyle;rounded=0;orthogonalLoop=1;jettySize=auto;html=1;exitX=0.5;exitY=1;exitDx=0;exitDy=0;entryX=0;entryY=0.5;entryDx=0;entryDy=0;fontFamily=Courier New;" edge="1" parent="-gKWWm9pX0lXrhywK45k-3" source="-gKWWm9pX0lXrhywK45k-4" target="-gKWWm9pX0lXrhywK45k-3">
          <mxGeometry relative="1" as="geometry" />
        </mxCell>
        <mxCell id="-gKWWm9pX0lXrhywK45k-10" value="Transition&lt;div&gt;FSM&lt;/div&gt;" style="edgeLabel;html=1;align=center;verticalAlign=middle;resizable=0;points=[];fontSize=17;fontFamily=Courier New;" vertex="1" connectable="0" parent="-gKWWm9pX0lXrhywK45k-9">
          <mxGeometry x="-0.1523" relative="1" as="geometry">
            <mxPoint x="-15" y="-74" as="offset" />
          </mxGeometry>
        </mxCell>
        <mxCell id="-gKWWm9pX0lXrhywK45k-28" value="VALID_ONE / VALID_ZERO" style="edgeLabel;html=1;align=center;verticalAlign=middle;resizable=0;points=[];strokeColor=default;fontFamily=Courier New;fontSize=17;fontColor=default;fillColor=default;" vertex="1" connectable="0" parent="-gKWWm9pX0lXrhywK45k-9">
          <mxGeometry x="-0.475" y="2" relative="1" as="geometry">
            <mxPoint x="71" y="41" as="offset" />
          </mxGeometry>
        </mxCell>
        <mxCell id="-gKWWm9pX0lXrhywK45k-22" value="" style="edgeStyle=orthogonalEdgeStyle;rounded=0;orthogonalLoop=1;jettySize=auto;html=1;fontFamily=Courier New;fontSize=17;fontColor=default;" edge="1" parent="-gKWWm9pX0lXrhywK45k-3" source="-gKWWm9pX0lXrhywK45k-19" target="-gKWWm9pX0lXrhywK45k-21">
          <mxGeometry relative="1" as="geometry" />
        </mxCell>
        <mxCell id="-gKWWm9pX0lXrhywK45k-23" value="Yes" style="edgeLabel;html=1;align=center;verticalAlign=middle;resizable=0;points=[];strokeColor=default;fontFamily=Courier New;fontSize=17;fontColor=default;fillColor=default;" vertex="1" connectable="0" parent="-gKWWm9pX0lXrhywK45k-22">
          <mxGeometry x="-0.25" relative="1" as="geometry">
            <mxPoint as="offset" />
          </mxGeometry>
        </mxCell>
        <mxCell id="-gKWWm9pX0lXrhywK45k-25" value="" style="edgeStyle=orthogonalEdgeStyle;rounded=0;orthogonalLoop=1;jettySize=auto;html=1;fontFamily=Courier New;fontSize=17;fontColor=default;" edge="1" parent="-gKWWm9pX0lXrhywK45k-3" source="-gKWWm9pX0lXrhywK45k-19" target="-gKWWm9pX0lXrhywK45k-24">
          <mxGeometry relative="1" as="geometry" />
        </mxCell>
        <mxCell id="-gKWWm9pX0lXrhywK45k-27" value="No" style="edgeLabel;html=1;align=center;verticalAlign=middle;resizable=0;points=[];strokeColor=default;fontFamily=Courier New;fontSize=17;fontColor=default;fillColor=default;" vertex="1" connectable="0" parent="-gKWWm9pX0lXrhywK45k-25">
          <mxGeometry x="-0.2941" y="-4" relative="1" as="geometry">
            <mxPoint as="offset" />
          </mxGeometry>
        </mxCell>
        <mxCell id="-gKWWm9pX0lXrhywK45k-19" value="Valid&lt;div&gt;Transmission&lt;/div&gt;" style="strokeWidth=2;html=1;shape=mxgraph.flowchart.decision;whiteSpace=wrap;strokeColor=default;align=center;verticalAlign=middle;fontFamily=Courier New;fontSize=12;fontColor=default;fillColor=default;" vertex="1" parent="-gKWWm9pX0lXrhywK45k-3">
          <mxGeometry x="38" y="249" width="120" height="110" as="geometry" />
        </mxCell>
        <mxCell id="-gKWWm9pX0lXrhywK45k-20" style="edgeStyle=orthogonalEdgeStyle;rounded=0;orthogonalLoop=1;jettySize=auto;html=1;exitX=0.5;exitY=1;exitDx=0;exitDy=0;entryX=0.5;entryY=0;entryDx=0;entryDy=0;entryPerimeter=0;fontFamily=Courier New;fontSize=17;fontColor=default;" edge="1" parent="-gKWWm9pX0lXrhywK45k-3" source="-gKWWm9pX0lXrhywK45k-8" target="-gKWWm9pX0lXrhywK45k-19">
          <mxGeometry relative="1" as="geometry">
            <Array as="points">
              <mxPoint x="98" y="220" />
              <mxPoint x="98" y="220" />
            </Array>
          </mxGeometry>
        </mxCell>
        <mxCell id="-gKWWm9pX0lXrhywK45k-74" value="VALID_MITE" style="edgeLabel;html=1;align=center;verticalAlign=middle;resizable=0;points=[];strokeColor=default;fontFamily=Courier New;fontSize=15;fontColor=default;fillColor=default;" vertex="1" connectable="0" parent="-gKWWm9pX0lXrhywK45k-20">
          <mxGeometry x="-0.1035" relative="1" as="geometry">
            <mxPoint as="offset" />
          </mxGeometry>
        </mxCell>
        <mxCell id="-gKWWm9pX0lXrhywK45k-26" style="edgeStyle=orthogonalEdgeStyle;rounded=0;orthogonalLoop=1;jettySize=auto;html=1;exitX=0.5;exitY=1;exitDx=0;exitDy=0;entryX=1;entryY=0.5;entryDx=0;entryDy=0;fontFamily=Courier New;fontSize=17;fontColor=default;" edge="1" parent="-gKWWm9pX0lXrhywK45k-3" source="-gKWWm9pX0lXrhywK45k-21" target="-gKWWm9pX0lXrhywK45k-24">
          <mxGeometry relative="1" as="geometry" />
        </mxCell>
        <mxCell id="-gKWWm9pX0lXrhywK45k-21" value="Synchronize&lt;div&gt;Clock&lt;/div&gt;" style="whiteSpace=wrap;html=1;fontFamily=Courier New;strokeWidth=2;fontSize=17;" vertex="1" parent="-gKWWm9pX0lXrhywK45k-3">
          <mxGeometry x="210" y="274" width="120" height="60" as="geometry" />
        </mxCell>
        <mxCell id="-gKWWm9pX0lXrhywK45k-30" value="" style="edgeStyle=orthogonalEdgeStyle;rounded=0;orthogonalLoop=1;jettySize=auto;html=1;fontFamily=Courier New;fontSize=17;fontColor=default;" edge="1" parent="-gKWWm9pX0lXrhywK45k-3" source="-gKWWm9pX0lXrhywK45k-24" target="-gKWWm9pX0lXrhywK45k-29">
          <mxGeometry relative="1" as="geometry" />
        </mxCell>
        <mxCell id="-gKWWm9pX0lXrhywK45k-24" value="Rest&lt;div&gt;FSM&lt;/div&gt;&lt;div&gt;Buffers&lt;/div&gt;" style="ellipse;whiteSpace=wrap;html=1;fontFamily=Courier New;strokeWidth=2;fontSize=16;" vertex="1" parent="-gKWWm9pX0lXrhywK45k-3">
          <mxGeometry x="58" y="410" width="80" height="80" as="geometry" />
        </mxCell>
        <mxCell id="-gKWWm9pX0lXrhywK45k-72" style="edgeStyle=orthogonalEdgeStyle;rounded=0;orthogonalLoop=1;jettySize=auto;html=1;exitX=0;exitY=0.5;exitDx=0;exitDy=0;entryX=0;entryY=0.5;entryDx=0;entryDy=0;fontFamily=Courier New;fontSize=17;fontColor=default;" edge="1" parent="-gKWWm9pX0lXrhywK45k-3" source="-gKWWm9pX0lXrhywK45k-29" target="-gKWWm9pX0lXrhywK45k-8">
          <mxGeometry relative="1" as="geometry">
            <Array as="points">
              <mxPoint x="20" y="590" />
              <mxPoint x="20" y="154" />
            </Array>
          </mxGeometry>
        </mxCell>
        <mxCell id="-gKWWm9pX0lXrhywK45k-29" value="validate&lt;div&gt;Start&lt;/div&gt;" style="ellipse;whiteSpace=wrap;html=1;fontSize=16;fontFamily=Courier New;strokeWidth=2;" vertex="1" parent="-gKWWm9pX0lXrhywK45k-3">
          <mxGeometry x="58" y="550" width="80" height="80" as="geometry" />
        </mxCell>
        <mxCell id="-gKWWm9pX0lXrhywK45k-34" value="" style="edgeStyle=orthogonalEdgeStyle;rounded=0;orthogonalLoop=1;jettySize=auto;html=1;fontFamily=Courier New;fontSize=17;fontColor=default;" edge="1" parent="-gKWWm9pX0lXrhywK45k-3" source="-gKWWm9pX0lXrhywK45k-31" target="-gKWWm9pX0lXrhywK45k-33">
          <mxGeometry relative="1" as="geometry" />
        </mxCell>
        <mxCell id="-gKWWm9pX0lXrhywK45k-31" value="Decode&lt;div&gt;Clock&lt;/div&gt;&lt;div&gt;Info&lt;/div&gt;" style="ellipse;whiteSpace=wrap;html=1;fontSize=16;fontFamily=Courier New;strokeWidth=2;" vertex="1" parent="-gKWWm9pX0lXrhywK45k-3">
          <mxGeometry x="190" y="550" width="80" height="80" as="geometry" />
        </mxCell>
        <mxCell id="-gKWWm9pX0lXrhywK45k-32" value="" style="edgeStyle=orthogonalEdgeStyle;rounded=0;orthogonalLoop=1;jettySize=auto;html=1;fontFamily=Courier New;fontSize=17;fontColor=default;" edge="1" parent="-gKWWm9pX0lXrhywK45k-3" source="-gKWWm9pX0lXrhywK45k-29" target="-gKWWm9pX0lXrhywK45k-31">
          <mxGeometry relative="1" as="geometry" />
        </mxCell>
        <mxCell id="-gKWWm9pX0lXrhywK45k-36" value="" style="edgeStyle=orthogonalEdgeStyle;rounded=0;orthogonalLoop=1;jettySize=auto;html=1;fontFamily=Courier New;fontSize=17;fontColor=default;" edge="1" parent="-gKWWm9pX0lXrhywK45k-3" source="-gKWWm9pX0lXrhywK45k-33" target="-gKWWm9pX0lXrhywK45k-35">
          <mxGeometry relative="1" as="geometry" />
        </mxCell>
        <mxCell id="-gKWWm9pX0lXrhywK45k-75" style="edgeStyle=orthogonalEdgeStyle;rounded=0;orthogonalLoop=1;jettySize=auto;html=1;exitX=0.5;exitY=1;exitDx=0;exitDy=0;entryX=0;entryY=0.5;entryDx=0;entryDy=0;fontFamily=Courier New;fontSize=17;fontColor=default;" edge="1" parent="-gKWWm9pX0lXrhywK45k-3" source="-gKWWm9pX0lXrhywK45k-33" target="-gKWWm9pX0lXrhywK45k-8">
          <mxGeometry relative="1" as="geometry">
            <Array as="points">
              <mxPoint x="360" y="650" />
              <mxPoint x="20" y="650" />
              <mxPoint x="20" y="154" />
            </Array>
          </mxGeometry>
        </mxCell>
        <mxCell id="-gKWWm9pX0lXrhywK45k-33" value="Validate&lt;div&gt;Minute&lt;/div&gt;&lt;div&gt;Transmission&lt;/div&gt;&lt;div&gt;Start&lt;/div&gt;" style="ellipse;whiteSpace=wrap;html=1;fontSize=12;fontFamily=Courier New;strokeWidth=2;" vertex="1" parent="-gKWWm9pX0lXrhywK45k-3">
          <mxGeometry x="320" y="550" width="80" height="80" as="geometry" />
        </mxCell>
        <mxCell id="-gKWWm9pX0lXrhywK45k-40" value="" style="edgeStyle=orthogonalEdgeStyle;rounded=0;orthogonalLoop=1;jettySize=auto;html=1;fontFamily=Courier New;fontSize=17;fontColor=default;" edge="1" parent="-gKWWm9pX0lXrhywK45k-3" source="-gKWWm9pX0lXrhywK45k-35" target="-gKWWm9pX0lXrhywK45k-39">
          <mxGeometry relative="1" as="geometry" />
        </mxCell>
        <mxCell id="-gKWWm9pX0lXrhywK45k-65" style="edgeStyle=orthogonalEdgeStyle;rounded=0;orthogonalLoop=1;jettySize=auto;html=1;exitX=0.5;exitY=0;exitDx=0;exitDy=0;entryX=1;entryY=0.5;entryDx=0;entryDy=0;fontFamily=Courier New;fontSize=17;fontColor=default;" edge="1" parent="-gKWWm9pX0lXrhywK45k-3" source="-gKWWm9pX0lXrhywK45k-35" target="-gKWWm9pX0lXrhywK45k-41">
          <mxGeometry relative="1" as="geometry" />
        </mxCell>
        <mxCell id="-gKWWm9pX0lXrhywK45k-35" value="Decode&lt;div&gt;Minutes&lt;/div&gt;" style="ellipse;whiteSpace=wrap;html=1;fontFamily=Courier New;strokeWidth=2;fontSize=16;" vertex="1" parent="-gKWWm9pX0lXrhywK45k-3">
          <mxGeometry x="450" y="550" width="80" height="80" as="geometry" />
        </mxCell>
        <mxCell id="-gKWWm9pX0lXrhywK45k-45" value="" style="edgeStyle=orthogonalEdgeStyle;rounded=0;orthogonalLoop=1;jettySize=auto;html=1;fontFamily=Courier New;fontSize=17;fontColor=default;" edge="1" parent="-gKWWm9pX0lXrhywK45k-3" source="-gKWWm9pX0lXrhywK45k-39" target="-gKWWm9pX0lXrhywK45k-44">
          <mxGeometry relative="1" as="geometry" />
        </mxCell>
        <mxCell id="-gKWWm9pX0lXrhywK45k-69" style="edgeStyle=orthogonalEdgeStyle;rounded=0;orthogonalLoop=1;jettySize=auto;html=1;exitX=0.5;exitY=0;exitDx=0;exitDy=0;entryX=1;entryY=0.5;entryDx=0;entryDy=0;fontFamily=Courier New;fontSize=17;fontColor=default;" edge="1" parent="-gKWWm9pX0lXrhywK45k-3" source="-gKWWm9pX0lXrhywK45k-39" target="-gKWWm9pX0lXrhywK45k-41">
          <mxGeometry relative="1" as="geometry" />
        </mxCell>
        <mxCell id="-gKWWm9pX0lXrhywK45k-39" value="Decode&lt;div&gt;Hours&lt;/div&gt;" style="ellipse;whiteSpace=wrap;html=1;fontSize=16;fontFamily=Courier New;strokeWidth=2;" vertex="1" parent="-gKWWm9pX0lXrhywK45k-3">
          <mxGeometry x="580" y="550" width="80" height="80" as="geometry" />
        </mxCell>
        <mxCell id="-gKWWm9pX0lXrhywK45k-64" style="edgeStyle=orthogonalEdgeStyle;rounded=0;orthogonalLoop=1;jettySize=auto;html=1;exitX=0;exitY=0.5;exitDx=0;exitDy=0;entryX=1;entryY=0.5;entryDx=0;entryDy=0;fontFamily=Courier New;fontSize=17;fontColor=default;" edge="1" parent="-gKWWm9pX0lXrhywK45k-3" source="-gKWWm9pX0lXrhywK45k-41" target="-gKWWm9pX0lXrhywK45k-8">
          <mxGeometry relative="1" as="geometry" />
        </mxCell>
        <mxCell id="-gKWWm9pX0lXrhywK45k-41" value="Failed&lt;div&gt;Parity&lt;/div&gt;&lt;div&gt;Check&lt;/div&gt;" style="ellipse;whiteSpace=wrap;html=1;fontSize=16;fontFamily=Courier New;strokeWidth=2;" vertex="1" parent="-gKWWm9pX0lXrhywK45k-3">
          <mxGeometry x="290" y="114" width="80" height="80" as="geometry" />
        </mxCell>
        <mxCell id="-gKWWm9pX0lXrhywK45k-47" value="" style="edgeStyle=orthogonalEdgeStyle;rounded=0;orthogonalLoop=1;jettySize=auto;html=1;fontFamily=Courier New;fontSize=17;fontColor=default;" edge="1" parent="-gKWWm9pX0lXrhywK45k-3" source="-gKWWm9pX0lXrhywK45k-44" target="-gKWWm9pX0lXrhywK45k-46">
          <mxGeometry relative="1" as="geometry" />
        </mxCell>
        <mxCell id="-gKWWm9pX0lXrhywK45k-44" value="Decode&lt;div&gt;&lt;span style=&quot;background-color: transparent; color: light-dark(rgb(0, 0, 0), rgb(255, 255, 255));&quot;&gt;Day of&lt;/span&gt;&lt;/div&gt;&lt;div&gt;&lt;span style=&quot;background-color: transparent; color: light-dark(rgb(0, 0, 0), rgb(255, 255, 255));&quot;&gt;Month&lt;/span&gt;&lt;/div&gt;" style="ellipse;whiteSpace=wrap;html=1;fontSize=16;fontFamily=Courier New;strokeWidth=2;" vertex="1" parent="-gKWWm9pX0lXrhywK45k-3">
          <mxGeometry x="700" y="550" width="80" height="80" as="geometry" />
        </mxCell>
        <mxCell id="-gKWWm9pX0lXrhywK45k-49" value="" style="edgeStyle=orthogonalEdgeStyle;rounded=0;orthogonalLoop=1;jettySize=auto;html=1;fontFamily=Courier New;fontSize=17;fontColor=default;" edge="1" parent="-gKWWm9pX0lXrhywK45k-3" source="-gKWWm9pX0lXrhywK45k-46" target="-gKWWm9pX0lXrhywK45k-48">
          <mxGeometry relative="1" as="geometry" />
        </mxCell>
        <mxCell id="-gKWWm9pX0lXrhywK45k-46" value="Decode&lt;div&gt;Day of&lt;/div&gt;&lt;div&gt;Week&lt;/div&gt;" style="ellipse;whiteSpace=wrap;html=1;fontSize=16;fontFamily=Courier New;strokeWidth=2;" vertex="1" parent="-gKWWm9pX0lXrhywK45k-3">
          <mxGeometry x="700" y="410" width="80" height="80" as="geometry" />
        </mxCell>
        <mxCell id="-gKWWm9pX0lXrhywK45k-51" value="" style="edgeStyle=orthogonalEdgeStyle;rounded=0;orthogonalLoop=1;jettySize=auto;html=1;fontFamily=Courier New;fontSize=17;fontColor=default;" edge="1" parent="-gKWWm9pX0lXrhywK45k-3" source="-gKWWm9pX0lXrhywK45k-48" target="-gKWWm9pX0lXrhywK45k-50">
          <mxGeometry relative="1" as="geometry" />
        </mxCell>
        <mxCell id="-gKWWm9pX0lXrhywK45k-48" value="Decode&lt;div&gt;Month&lt;/div&gt;" style="ellipse;whiteSpace=wrap;html=1;fontSize=16;fontFamily=Courier New;strokeWidth=2;" vertex="1" parent="-gKWWm9pX0lXrhywK45k-3">
          <mxGeometry x="700" y="274" width="80" height="80" as="geometry" />
        </mxCell>
        <mxCell id="-gKWWm9pX0lXrhywK45k-59" style="edgeStyle=orthogonalEdgeStyle;rounded=0;orthogonalLoop=1;jettySize=auto;html=1;exitX=0.5;exitY=0;exitDx=0;exitDy=0;entryX=1;entryY=0.5;entryDx=0;entryDy=0;fontFamily=Courier New;fontSize=17;fontColor=default;" edge="1" parent="-gKWWm9pX0lXrhywK45k-3" source="-gKWWm9pX0lXrhywK45k-50" target="-gKWWm9pX0lXrhywK45k-58">
          <mxGeometry relative="1" as="geometry" />
        </mxCell>
        <mxCell id="-gKWWm9pX0lXrhywK45k-68" style="edgeStyle=orthogonalEdgeStyle;rounded=0;orthogonalLoop=1;jettySize=auto;html=1;exitX=0;exitY=0.5;exitDx=0;exitDy=0;entryX=1;entryY=0.5;entryDx=0;entryDy=0;fontFamily=Courier New;fontSize=17;fontColor=default;" edge="1" parent="-gKWWm9pX0lXrhywK45k-3" source="-gKWWm9pX0lXrhywK45k-50" target="-gKWWm9pX0lXrhywK45k-41">
          <mxGeometry relative="1" as="geometry" />
        </mxCell>
        <mxCell id="-gKWWm9pX0lXrhywK45k-70" value="Check Parity BIT" style="edgeLabel;html=1;align=center;verticalAlign=middle;resizable=0;points=[];strokeColor=default;fontFamily=Courier New;fontSize=17;fontColor=default;fillColor=default;" vertex="1" connectable="0" parent="-gKWWm9pX0lXrhywK45k-68">
          <mxGeometry x="0.1758" y="3" relative="1" as="geometry">
            <mxPoint x="44" y="-3" as="offset" />
          </mxGeometry>
        </mxCell>
        <mxCell id="-gKWWm9pX0lXrhywK45k-50" value="Decode&lt;div&gt;Year&lt;/div&gt;" style="ellipse;whiteSpace=wrap;html=1;fontSize=16;fontFamily=Courier New;strokeWidth=2;" vertex="1" parent="-gKWWm9pX0lXrhywK45k-3">
          <mxGeometry x="700" y="114" width="80" height="80" as="geometry" />
        </mxCell>
        <mxCell id="-gKWWm9pX0lXrhywK45k-77" style="edgeStyle=orthogonalEdgeStyle;rounded=0;orthogonalLoop=1;jettySize=auto;html=1;exitX=0.5;exitY=0;exitDx=0;exitDy=0;entryX=0;entryY=0.5;entryDx=0;entryDy=0;fontFamily=Courier New;fontSize=17;fontColor=default;" edge="1" parent="-gKWWm9pX0lXrhywK45k-3" source="-gKWWm9pX0lXrhywK45k-58" target="-gKWWm9pX0lXrhywK45k-8">
          <mxGeometry relative="1" as="geometry">
            <Array as="points">
              <mxPoint x="490" y="34" />
              <mxPoint x="20" y="34" />
              <mxPoint x="20" y="153" />
            </Array>
          </mxGeometry>
        </mxCell>
        <mxCell id="-gKWWm9pX0lXrhywK45k-58" value="&lt;div&gt;&lt;span style=&quot;background-color: transparent; color: light-dark(rgb(0, 0, 0), rgb(255, 255, 255));&quot;&gt;VALIDATE&lt;/span&gt;&lt;/div&gt;&lt;div&gt;TRANSMISION&lt;/div&gt;" style="rounded=1;whiteSpace=wrap;html=1;strokeColor=default;align=center;verticalAlign=middle;fontFamily=Courier New;fontSize=21;fontColor=default;fillColor=default;" vertex="1" parent="-gKWWm9pX0lXrhywK45k-3">
          <mxGeometry x="400" y="54" width="180" height="60" as="geometry" />
        </mxCell>
        <mxCell id="-gKWWm9pX0lXrhywK45k-78" value="&lt;div&gt;&lt;span style=&quot;font-weight: normal;&quot;&gt;&lt;font&gt;DC77&lt;/font&gt;&lt;/span&gt;&lt;/div&gt;&lt;span style=&quot;font-weight: normal;&quot;&gt;&lt;font&gt;Signal&lt;/font&gt;&lt;/span&gt;&lt;div&gt;&lt;span style=&quot;font-weight: normal;&quot;&gt;&lt;font&gt;Decoding&lt;/font&gt;&lt;/span&gt;&lt;/div&gt;&lt;div&gt;&lt;span style=&quot;font-weight: normal;&quot;&gt;&lt;font&gt;Finite&lt;/font&gt;&lt;/span&gt;&lt;/div&gt;&lt;div&gt;&lt;span style=&quot;font-weight: normal;&quot;&gt;&lt;font&gt;State&lt;/font&gt;&lt;/span&gt;&lt;/div&gt;&lt;div&gt;&lt;span style=&quot;font-weight: normal;&quot;&gt;&lt;font&gt;Machine&lt;/font&gt;&lt;/span&gt;&lt;/div&gt;" style="text;html=1;align=center;verticalAlign=middle;resizable=0;points=[];autosize=1;strokeColor=none;fillColor=none;fontFamily=Courier New;fontSize=40;fontColor=default;fontStyle=1;labelBorderColor=default;labelBackgroundColor=default;" vertex="1" parent="-gKWWm9pX0lXrhywK45k-1">
          <mxGeometry x="30" y="460" width="220" height="300" as="geometry" />
        </mxCell>
      </root>
    </mxGraphModel>
  </diagram>
  <diagram id="UfofEIpeAu-hLFIjI0Mn" name="DCF77-Signal-Sampler">
    <mxGraphModel dx="2931" dy="1181" grid="1" gridSize="10" guides="1" tooltips="1" connect="1" arrows="1" fold="1" page="1" pageScale="1" pageWidth="827" pageHeight="1169" math="0" shadow="0">
      <root>
        <mxCell id="0" />
        <mxCell id="1" parent="0" />
        <mxCell id="-KamrOupDv2A77K8OimE-1" value="&lt;h1&gt;DCF77 Signal Sampler&lt;/h1&gt;" style="swimlane;whiteSpace=wrap;html=1;strokeColor=default;align=center;verticalAlign=middle;fontFamily=Courier New;fontSize=17;fontColor=default;fillColor=default;" vertex="1" parent="1">
          <mxGeometry x="111" y="440" width="711" height="673" as="geometry" />
        </mxCell>
        <mxCell id="-KamrOupDv2A77K8OimE-3" value="Compare&lt;div&gt;Current&lt;/div&gt;&lt;div&gt;Last&lt;/div&gt;&lt;div&gt;Samples&lt;/div&gt;" style="ellipse;whiteSpace=wrap;html=1;aspect=fixed;strokeColor=default;align=center;verticalAlign=middle;fontFamily=Courier New;fontSize=17;fontColor=default;fillColor=default;" vertex="1" parent="-KamrOupDv2A77K8OimE-1">
          <mxGeometry x="37" y="101" width="112" height="112" as="geometry" />
        </mxCell>
        <mxCell id="-KamrOupDv2A77K8OimE-4" style="edgeStyle=orthogonalEdgeStyle;rounded=0;orthogonalLoop=1;jettySize=auto;html=1;exitX=1;exitY=0.5;exitDx=0;exitDy=0;entryX=0.5;entryY=0;entryDx=0;entryDy=0;fontFamily=Courier New;fontSize=17;fontColor=default;elbow=vertical;curved=1;" edge="1" parent="-KamrOupDv2A77K8OimE-1" source="-KamrOupDv2A77K8OimE-3" target="-KamrOupDv2A77K8OimE-3">
          <mxGeometry relative="1" as="geometry">
            <Array as="points">
              <mxPoint x="212" y="157" />
              <mxPoint x="212" y="42" />
              <mxPoint x="93" y="42" />
            </Array>
          </mxGeometry>
        </mxCell>
        <mxCell id="-KamrOupDv2A77K8OimE-5" value="Wait&lt;div&gt;for&lt;/div&gt;&lt;div&gt;Change&lt;/div&gt;" style="edgeLabel;html=1;align=center;verticalAlign=middle;resizable=0;points=[];strokeColor=default;fontFamily=Courier New;fontSize=17;fontColor=default;fillColor=default;labelBackgroundColor=none;" vertex="1" connectable="0" parent="-KamrOupDv2A77K8OimE-4">
          <mxGeometry x="-0.283" y="2" relative="1" as="geometry">
            <mxPoint x="-33" y="-13" as="offset" />
          </mxGeometry>
        </mxCell>
        <mxCell id="-KamrOupDv2A77K8OimE-10" style="edgeStyle=orthogonalEdgeStyle;rounded=0;orthogonalLoop=1;jettySize=auto;html=1;exitX=1;exitY=0.5;exitDx=0;exitDy=0;exitPerimeter=0;entryX=0;entryY=0.5;entryDx=0;entryDy=0;fontFamily=Courier New;fontSize=17;fontColor=default;" edge="1" parent="-KamrOupDv2A77K8OimE-1" source="-KamrOupDv2A77K8OimE-6" target="-KamrOupDv2A77K8OimE-9">
          <mxGeometry relative="1" as="geometry">
            <Array as="points">
              <mxPoint x="227" y="331" />
              <mxPoint x="227" y="175" />
              <mxPoint x="285" y="175" />
            </Array>
          </mxGeometry>
        </mxCell>
        <mxCell id="-KamrOupDv2A77K8OimE-11" value="Signal&lt;div&gt;Was&lt;/div&gt;&lt;div&gt;High&lt;/div&gt;&lt;div&gt;Now&lt;/div&gt;&lt;div&gt;Is&lt;/div&gt;&lt;div&gt;Low&lt;/div&gt;" style="edgeLabel;html=1;align=center;verticalAlign=middle;resizable=0;points=[];strokeColor=default;fontFamily=Courier New;fontSize=17;fontColor=default;fillColor=default;labelBackgroundColor=none;" vertex="1" connectable="0" parent="-KamrOupDv2A77K8OimE-10">
          <mxGeometry x="0.2884" relative="1" as="geometry">
            <mxPoint x="-38" y="55" as="offset" />
          </mxGeometry>
        </mxCell>
        <mxCell id="-KamrOupDv2A77K8OimE-14" style="edgeStyle=orthogonalEdgeStyle;rounded=0;orthogonalLoop=1;jettySize=auto;html=1;exitX=0.5;exitY=1;exitDx=0;exitDy=0;exitPerimeter=0;fontFamily=Courier New;fontSize=17;fontColor=default;entryX=0;entryY=0.5;entryDx=0;entryDy=0;" edge="1" parent="-KamrOupDv2A77K8OimE-1" source="-KamrOupDv2A77K8OimE-6" target="-KamrOupDv2A77K8OimE-36">
          <mxGeometry relative="1" as="geometry">
            <mxPoint x="257" y="541" as="targetPoint" />
            <Array as="points">
              <mxPoint x="93" y="516" />
            </Array>
          </mxGeometry>
        </mxCell>
        <mxCell id="-KamrOupDv2A77K8OimE-15" value="Must&lt;div&gt;Be&lt;/div&gt;&lt;div&gt;Rising&lt;/div&gt;&lt;div&gt;Edge&lt;/div&gt;" style="edgeLabel;html=1;align=center;verticalAlign=middle;resizable=0;points=[];strokeColor=default;fontFamily=Courier New;fontSize=17;fontColor=default;fillColor=default;labelBackgroundColor=none;" vertex="1" connectable="0" parent="-KamrOupDv2A77K8OimE-14">
          <mxGeometry x="-0.7073" y="4" relative="1" as="geometry">
            <mxPoint x="32" y="39" as="offset" />
          </mxGeometry>
        </mxCell>
        <mxCell id="-KamrOupDv2A77K8OimE-6" value="Detect&lt;div&gt;Edge&lt;/div&gt;" style="strokeWidth=2;html=1;shape=mxgraph.flowchart.decision;whiteSpace=wrap;strokeColor=default;align=center;verticalAlign=middle;fontFamily=Courier New;fontSize=17;fontColor=default;fillColor=default;" vertex="1" parent="-KamrOupDv2A77K8OimE-1">
          <mxGeometry x="43" y="281" width="100" height="100" as="geometry" />
        </mxCell>
        <mxCell id="-KamrOupDv2A77K8OimE-7" style="edgeStyle=orthogonalEdgeStyle;rounded=0;orthogonalLoop=1;jettySize=auto;html=1;exitX=0.5;exitY=1;exitDx=0;exitDy=0;entryX=0.5;entryY=0;entryDx=0;entryDy=0;entryPerimeter=0;fontFamily=Courier New;fontSize=17;fontColor=default;" edge="1" parent="-KamrOupDv2A77K8OimE-1" source="-KamrOupDv2A77K8OimE-3" target="-KamrOupDv2A77K8OimE-6">
          <mxGeometry relative="1" as="geometry" />
        </mxCell>
        <mxCell id="-KamrOupDv2A77K8OimE-9" value="&lt;h1&gt;Falling Edge&lt;/h1&gt;" style="swimlane;whiteSpace=wrap;html=1;strokeColor=default;align=center;verticalAlign=middle;fontFamily=Courier New;fontSize=17;fontColor=default;fillColor=default;" vertex="1" parent="-KamrOupDv2A77K8OimE-1">
          <mxGeometry x="295" y="61" width="380" height="230" as="geometry" />
        </mxCell>
        <mxCell id="-KamrOupDv2A77K8OimE-24" style="edgeStyle=orthogonalEdgeStyle;rounded=0;orthogonalLoop=1;jettySize=auto;html=1;exitX=1;exitY=0.5;exitDx=0;exitDy=0;entryX=0;entryY=0.5;entryDx=0;entryDy=0;fontFamily=Courier New;fontSize=17;fontColor=default;" edge="1" parent="-KamrOupDv2A77K8OimE-9" source="-KamrOupDv2A77K8OimE-17" target="-KamrOupDv2A77K8OimE-21">
          <mxGeometry relative="1" as="geometry" />
        </mxCell>
        <mxCell id="-KamrOupDv2A77K8OimE-17" value="Calculate&lt;div&gt;T_pulse&lt;/div&gt;" style="ellipse;whiteSpace=wrap;html=1;aspect=fixed;strokeColor=default;align=center;verticalAlign=middle;fontFamily=Courier New;fontSize=17;fontColor=default;fillColor=default;" vertex="1" parent="-KamrOupDv2A77K8OimE-9">
          <mxGeometry x="22.5" y="40" width="98" height="98" as="geometry" />
        </mxCell>
        <mxCell id="-KamrOupDv2A77K8OimE-26" style="edgeStyle=orthogonalEdgeStyle;rounded=0;orthogonalLoop=1;jettySize=auto;html=1;exitX=1;exitY=0.5;exitDx=0;exitDy=0;entryX=0;entryY=0.5;entryDx=0;entryDy=0;fontFamily=Courier New;fontSize=17;fontColor=default;" edge="1" parent="-KamrOupDv2A77K8OimE-9" source="-KamrOupDv2A77K8OimE-21" target="-KamrOupDv2A77K8OimE-22">
          <mxGeometry relative="1" as="geometry" />
        </mxCell>
        <mxCell id="-KamrOupDv2A77K8OimE-21" value="Reset&lt;div&gt;Falling&lt;/div&gt;&lt;div&gt;Edge&lt;/div&gt;&lt;div&gt;Mark&lt;/div&gt;" style="ellipse;whiteSpace=wrap;html=1;aspect=fixed;strokeColor=default;align=center;verticalAlign=middle;fontFamily=Courier New;fontSize=17;fontColor=default;fillColor=default;" vertex="1" parent="-KamrOupDv2A77K8OimE-9">
          <mxGeometry x="141" y="40" width="98" height="98" as="geometry" />
        </mxCell>
        <mxCell id="-KamrOupDv2A77K8OimE-29" style="edgeStyle=orthogonalEdgeStyle;rounded=0;orthogonalLoop=1;jettySize=auto;html=1;exitX=1;exitY=0.5;exitDx=0;exitDy=0;entryX=1;entryY=0.5;entryDx=0;entryDy=0;fontFamily=Courier New;fontSize=17;fontColor=default;" edge="1" parent="-KamrOupDv2A77K8OimE-9" source="-KamrOupDv2A77K8OimE-22" target="-KamrOupDv2A77K8OimE-28">
          <mxGeometry relative="1" as="geometry">
            <Array as="points">
              <mxPoint x="372" y="89" />
              <mxPoint x="372" y="180" />
            </Array>
          </mxGeometry>
        </mxCell>
        <mxCell id="-KamrOupDv2A77K8OimE-22" value="Validate&lt;div&gt;Second&lt;/div&gt;&lt;div&gt;Minute&lt;/div&gt;" style="ellipse;whiteSpace=wrap;html=1;aspect=fixed;strokeColor=default;align=center;verticalAlign=middle;fontFamily=Courier New;fontSize=17;fontColor=default;fillColor=default;" vertex="1" parent="-KamrOupDv2A77K8OimE-9">
          <mxGeometry x="259.5" y="40" width="98" height="98" as="geometry" />
        </mxCell>
        <mxCell id="-KamrOupDv2A77K8OimE-35" style="edgeStyle=orthogonalEdgeStyle;rounded=0;orthogonalLoop=1;jettySize=auto;html=1;exitX=0;exitY=0.5;exitDx=0;exitDy=0;entryX=1;entryY=0.5;entryDx=0;entryDy=0;fontFamily=Courier New;fontSize=17;fontColor=default;" edge="1" parent="-KamrOupDv2A77K8OimE-9" source="-KamrOupDv2A77K8OimE-28" target="-KamrOupDv2A77K8OimE-34">
          <mxGeometry relative="1" as="geometry" />
        </mxCell>
        <mxCell id="-KamrOupDv2A77K8OimE-28" value="&lt;div&gt;Return Event&lt;/div&gt;" style="rounded=1;whiteSpace=wrap;html=1;strokeColor=default;align=center;verticalAlign=middle;fontFamily=Courier New;fontSize=17;fontColor=default;fillColor=default;" vertex="1" parent="-KamrOupDv2A77K8OimE-9">
          <mxGeometry x="210.5" y="150" width="147" height="60" as="geometry" />
        </mxCell>
        <mxCell id="-KamrOupDv2A77K8OimE-34" value="&lt;div&gt;VALID_MINUTE&lt;/div&gt;&lt;div&gt;VALID_SECOND&lt;/div&gt;&lt;div&gt;INVALID&lt;/div&gt;" style="rounded=0;whiteSpace=wrap;html=1;strokeColor=default;align=center;verticalAlign=middle;fontFamily=Courier New;fontSize=17;fontColor=default;fillColor=default;" vertex="1" parent="-KamrOupDv2A77K8OimE-9">
          <mxGeometry x="22.5" y="150" width="138.5" height="60" as="geometry" />
        </mxCell>
        <mxCell id="-KamrOupDv2A77K8OimE-36" value="&lt;h1&gt;Rising Edge&lt;/h1&gt;" style="swimlane;whiteSpace=wrap;html=1;strokeColor=default;align=center;verticalAlign=middle;fontFamily=Courier New;fontSize=17;fontColor=default;fillColor=default;" vertex="1" parent="-KamrOupDv2A77K8OimE-1">
          <mxGeometry x="295" y="401" width="380" height="230" as="geometry" />
        </mxCell>
        <mxCell id="-KamrOupDv2A77K8OimE-46" style="edgeStyle=orthogonalEdgeStyle;rounded=0;orthogonalLoop=1;jettySize=auto;html=1;exitX=1;exitY=0.5;exitDx=0;exitDy=0;entryX=0;entryY=0.5;entryDx=0;entryDy=0;fontFamily=Courier New;fontSize=17;fontColor=default;" edge="1" parent="-KamrOupDv2A77K8OimE-36" source="-KamrOupDv2A77K8OimE-38" target="-KamrOupDv2A77K8OimE-42">
          <mxGeometry relative="1" as="geometry" />
        </mxCell>
        <mxCell id="-KamrOupDv2A77K8OimE-38" value="Calculate&lt;div&gt;T_low&lt;/div&gt;" style="ellipse;whiteSpace=wrap;html=1;aspect=fixed;strokeColor=default;align=center;verticalAlign=middle;fontFamily=Courier New;fontSize=17;fontColor=default;fillColor=default;" vertex="1" parent="-KamrOupDv2A77K8OimE-36">
          <mxGeometry x="22.5" y="40" width="98" height="98" as="geometry" />
        </mxCell>
        <mxCell id="-KamrOupDv2A77K8OimE-41" style="edgeStyle=orthogonalEdgeStyle;rounded=0;orthogonalLoop=1;jettySize=auto;html=1;exitX=1;exitY=0.5;exitDx=0;exitDy=0;entryX=1;entryY=0.5;entryDx=0;entryDy=0;fontFamily=Courier New;fontSize=17;fontColor=default;" edge="1" parent="-KamrOupDv2A77K8OimE-36" source="-KamrOupDv2A77K8OimE-42" target="-KamrOupDv2A77K8OimE-44">
          <mxGeometry relative="1" as="geometry">
            <Array as="points">
              <mxPoint x="372" y="89" />
              <mxPoint x="372" y="180" />
            </Array>
          </mxGeometry>
        </mxCell>
        <mxCell id="-KamrOupDv2A77K8OimE-42" value="Validate&lt;div&gt;&lt;span style=&quot;background-color: transparent; color: light-dark(rgb(0, 0, 0), rgb(255, 255, 255));&quot;&gt;Zero&lt;/span&gt;&lt;/div&gt;&lt;div&gt;&lt;span style=&quot;background-color: transparent; color: light-dark(rgb(0, 0, 0), rgb(255, 255, 255));&quot;&gt;One&lt;/span&gt;&lt;/div&gt;" style="ellipse;whiteSpace=wrap;html=1;aspect=fixed;strokeColor=default;align=center;verticalAlign=middle;fontFamily=Courier New;fontSize=17;fontColor=default;fillColor=default;" vertex="1" parent="-KamrOupDv2A77K8OimE-36">
          <mxGeometry x="259.5" y="40" width="98" height="98" as="geometry" />
        </mxCell>
        <mxCell id="-KamrOupDv2A77K8OimE-43" style="edgeStyle=orthogonalEdgeStyle;rounded=0;orthogonalLoop=1;jettySize=auto;html=1;exitX=0;exitY=0.5;exitDx=0;exitDy=0;entryX=1;entryY=0.5;entryDx=0;entryDy=0;fontFamily=Courier New;fontSize=17;fontColor=default;" edge="1" parent="-KamrOupDv2A77K8OimE-36" source="-KamrOupDv2A77K8OimE-44" target="-KamrOupDv2A77K8OimE-45">
          <mxGeometry relative="1" as="geometry" />
        </mxCell>
        <mxCell id="-KamrOupDv2A77K8OimE-44" value="&lt;div&gt;Return Event&lt;/div&gt;" style="rounded=1;whiteSpace=wrap;html=1;strokeColor=default;align=center;verticalAlign=middle;fontFamily=Courier New;fontSize=17;fontColor=default;fillColor=default;" vertex="1" parent="-KamrOupDv2A77K8OimE-36">
          <mxGeometry x="210.5" y="150" width="147" height="60" as="geometry" />
        </mxCell>
        <mxCell id="-KamrOupDv2A77K8OimE-45" value="&lt;div&gt;VALID_ZERO&lt;/div&gt;&lt;div&gt;VALID_ONE&lt;/div&gt;&lt;div&gt;INVALID&lt;/div&gt;" style="rounded=0;whiteSpace=wrap;html=1;strokeColor=default;align=center;verticalAlign=middle;fontFamily=Courier New;fontSize=17;fontColor=default;fillColor=default;" vertex="1" parent="-KamrOupDv2A77K8OimE-36">
          <mxGeometry x="22.5" y="150" width="138.5" height="60" as="geometry" />
        </mxCell>
        <mxCell id="DClUEhzd8c9XSpGV_h12-2" value="&lt;div&gt;Binary&lt;/div&gt;&lt;div&gt;DCF77&lt;/div&gt;Signal&lt;div&gt;Sample&lt;/div&gt;&lt;div&gt;With&lt;/div&gt;&lt;div&gt;Time&lt;/div&gt;&lt;div&gt;Stamp&lt;/div&gt;" style="verticalLabelPosition=bottom;verticalAlign=top;html=1;strokeWidth=2;shape=mxgraph.arrows2.arrow;dy=0.6;dx=40;notch=0;strokeColor=default;align=center;fontFamily=Courier New;fontSize=26;fontColor=default;fillColor=default;" vertex="1" parent="1">
          <mxGeometry x="5" y="570" width="106" height="58" as="geometry" />
        </mxCell>
        <mxCell id="bTQdbIfASUVu-kO0pVv1-1" value="&lt;h1&gt;DCF77 Pulse Signal&lt;/h1&gt;" style="swimlane;whiteSpace=wrap;html=1;strokeColor=default;align=center;verticalAlign=middle;fontFamily=Courier New;fontSize=17;fontColor=default;fillColor=default;" vertex="1" parent="1">
          <mxGeometry x="24" y="70" width="780" height="280" as="geometry" />
        </mxCell>
        <mxCell id="bTQdbIfASUVu-kO0pVv1-2" value="" style="endArrow=none;html=1;rounded=0;fontFamily=Courier New;fontSize=17;fontColor=default;" edge="1" parent="bTQdbIfASUVu-kO0pVv1-1">
          <mxGeometry width="50" height="50" relative="1" as="geometry">
            <mxPoint x="720" y="120" as="sourcePoint" />
            <mxPoint x="40" y="120" as="targetPoint" />
            <Array as="points">
              <mxPoint x="720" y="160" />
              <mxPoint x="640" y="160" />
              <mxPoint x="640" y="120" />
              <mxPoint x="520" y="120" />
              <mxPoint x="520" y="160" />
              <mxPoint x="360" y="160" />
              <mxPoint x="360" y="120" />
              <mxPoint x="160" y="120" />
              <mxPoint x="160" y="160" />
              <mxPoint x="80" y="160" />
              <mxPoint x="80" y="120" />
            </Array>
          </mxGeometry>
        </mxCell>
        <mxCell id="bTQdbIfASUVu-kO0pVv1-3" value="" style="endArrow=classic;startArrow=classic;html=1;rounded=0;fontFamily=Courier New;fontSize=17;fontColor=default;" edge="1" parent="bTQdbIfASUVu-kO0pVv1-1">
          <mxGeometry width="50" height="50" relative="1" as="geometry">
            <mxPoint x="520" y="200" as="sourcePoint" />
            <mxPoint x="360" y="200" as="targetPoint" />
          </mxGeometry>
        </mxCell>
        <mxCell id="bTQdbIfASUVu-kO0pVv1-4" value="T_low" style="edgeLabel;html=1;align=center;verticalAlign=middle;resizable=0;points=[];strokeColor=default;fontFamily=Courier New;fontSize=17;fontColor=default;fillColor=default;" vertex="1" connectable="0" parent="bTQdbIfASUVu-kO0pVv1-3">
          <mxGeometry x="0.1478" y="1" relative="1" as="geometry">
            <mxPoint x="16" as="offset" />
          </mxGeometry>
        </mxCell>
        <mxCell id="bTQdbIfASUVu-kO0pVv1-5" value="" style="endArrow=classic;startArrow=classic;html=1;rounded=0;fontFamily=Courier New;fontSize=17;fontColor=default;" edge="1" parent="bTQdbIfASUVu-kO0pVv1-1">
          <mxGeometry width="50" height="50" relative="1" as="geometry">
            <mxPoint x="80" y="240" as="sourcePoint" />
            <mxPoint x="360" y="240" as="targetPoint" />
          </mxGeometry>
        </mxCell>
        <mxCell id="bTQdbIfASUVu-kO0pVv1-6" value="T_Pulse" style="edgeLabel;html=1;align=center;verticalAlign=middle;resizable=0;points=[];strokeColor=default;fontFamily=Courier New;fontSize=17;fontColor=default;fillColor=default;" vertex="1" connectable="0" parent="bTQdbIfASUVu-kO0pVv1-5">
          <mxGeometry x="-0.0807" y="1" relative="1" as="geometry">
            <mxPoint as="offset" />
          </mxGeometry>
        </mxCell>
        <mxCell id="bTQdbIfASUVu-kO0pVv1-7" value="" style="endArrow=classic;html=1;rounded=0;fontFamily=Courier New;fontSize=17;fontColor=default;exitX=0.5;exitY=1;exitDx=0;exitDy=0;exitPerimeter=0;" edge="1" parent="bTQdbIfASUVu-kO0pVv1-1" source="bTQdbIfASUVu-kO0pVv1-8">
          <mxGeometry width="50" height="50" relative="1" as="geometry">
            <mxPoint x="90" y="90" as="sourcePoint" />
            <mxPoint x="80" y="120" as="targetPoint" />
          </mxGeometry>
        </mxCell>
        <mxCell id="bTQdbIfASUVu-kO0pVv1-8" value="Falling&lt;div&gt;Edge&lt;/div&gt;" style="text;html=1;align=center;verticalAlign=middle;resizable=0;points=[[0.5,1,0,0,0]];autosize=1;strokeColor=none;fillColor=none;fontFamily=Courier New;fontSize=16;fontColor=default;" vertex="1" parent="bTQdbIfASUVu-kO0pVv1-1">
          <mxGeometry x="35" y="35" width="90" height="50" as="geometry" />
        </mxCell>
        <mxCell id="bTQdbIfASUVu-kO0pVv1-9" value="" style="endArrow=classic;html=1;rounded=0;fontFamily=Courier New;fontSize=16;fontColor=default;entryX=0.5;entryY=1;entryDx=0;entryDy=0;entryPerimeter=0;exitX=1.004;exitY=-0.042;exitDx=0;exitDy=0;exitPerimeter=0;" edge="1" parent="bTQdbIfASUVu-kO0pVv1-1" source="bTQdbIfASUVu-kO0pVv1-12" target="bTQdbIfASUVu-kO0pVv1-10">
          <mxGeometry width="50" height="50" relative="1" as="geometry">
            <mxPoint x="520" y="120" as="sourcePoint" />
            <mxPoint x="570" y="70" as="targetPoint" />
          </mxGeometry>
        </mxCell>
        <mxCell id="bTQdbIfASUVu-kO0pVv1-10" value="Rising&lt;div&gt;Edge&lt;/div&gt;" style="text;html=1;align=center;verticalAlign=middle;resizable=0;points=[[0.5,1,0,0,0]];autosize=1;strokeColor=none;fillColor=none;fontFamily=Courier New;fontSize=16;fontColor=default;" vertex="1" parent="bTQdbIfASUVu-kO0pVv1-1">
          <mxGeometry x="120" y="35" width="80" height="50" as="geometry" />
        </mxCell>
        <mxCell id="bTQdbIfASUVu-kO0pVv1-11" value="" style="endArrow=none;dashed=1;html=1;strokeWidth=1;rounded=0;fontFamily=Courier New;fontSize=17;fontColor=default;dashPattern=8 8;" edge="1" parent="bTQdbIfASUVu-kO0pVv1-1">
          <mxGeometry width="50" height="50" relative="1" as="geometry">
            <mxPoint x="720" y="120" as="sourcePoint" />
            <mxPoint x="780" y="120" as="targetPoint" />
          </mxGeometry>
        </mxCell>
        <mxCell id="bTQdbIfASUVu-kO0pVv1-12" value="Received&lt;div&gt;Zero&lt;/div&gt;" style="text;html=1;align=center;verticalAlign=middle;resizable=0;points=[];autosize=1;strokeColor=none;fillColor=none;fontFamily=Courier New;fontSize=11;fontColor=default;" vertex="1" parent="bTQdbIfASUVu-kO0pVv1-1">
          <mxGeometry x="80" y="120" width="80" height="40" as="geometry" />
        </mxCell>
        <mxCell id="bTQdbIfASUVu-kO0pVv1-13" value="Received&lt;div&gt;one&lt;/div&gt;" style="text;html=1;align=center;verticalAlign=middle;resizable=0;points=[];autosize=1;strokeColor=none;fillColor=none;fontFamily=Courier New;fontSize=11;fontColor=default;" vertex="1" parent="bTQdbIfASUVu-kO0pVv1-1">
          <mxGeometry x="390" y="120" width="80" height="40" as="geometry" />
        </mxCell>
        <mxCell id="SaK2bjMdwWQtDqhuZ9Gv-3" value="" style="endArrow=classic;startArrow=classic;html=1;rounded=0;fontFamily=Courier New;fontSize=17;fontColor=default;" edge="1" parent="bTQdbIfASUVu-kO0pVv1-1">
          <mxGeometry width="50" height="50" relative="1" as="geometry">
            <mxPoint x="360" y="240" as="sourcePoint" />
            <mxPoint x="640" y="240" as="targetPoint" />
          </mxGeometry>
        </mxCell>
        <mxCell id="SaK2bjMdwWQtDqhuZ9Gv-4" value="T_Pulse" style="edgeLabel;html=1;align=center;verticalAlign=middle;resizable=0;points=[];strokeColor=default;fontFamily=Courier New;fontSize=17;fontColor=default;fillColor=default;" vertex="1" connectable="0" parent="SaK2bjMdwWQtDqhuZ9Gv-3">
          <mxGeometry x="-0.0807" y="1" relative="1" as="geometry">
            <mxPoint as="offset" />
          </mxGeometry>
        </mxCell>
        <mxCell id="SaK2bjMdwWQtDqhuZ9Gv-5" value="" style="endArrow=classic;startArrow=classic;html=1;rounded=0;fontFamily=Courier New;fontSize=17;fontColor=default;" edge="1" parent="bTQdbIfASUVu-kO0pVv1-1">
          <mxGeometry width="50" height="50" relative="1" as="geometry">
            <mxPoint x="160" y="200" as="sourcePoint" />
            <mxPoint x="80" y="200" as="targetPoint" />
          </mxGeometry>
        </mxCell>
        <mxCell id="SaK2bjMdwWQtDqhuZ9Gv-6" value="T_low" style="edgeLabel;html=1;align=center;verticalAlign=middle;resizable=0;points=[];strokeColor=default;fontFamily=Courier New;fontSize=17;fontColor=default;fillColor=default;" vertex="1" connectable="0" parent="SaK2bjMdwWQtDqhuZ9Gv-5">
          <mxGeometry x="0.1478" y="1" relative="1" as="geometry">
            <mxPoint x="6" as="offset" />
          </mxGeometry>
        </mxCell>
        <mxCell id="SaK2bjMdwWQtDqhuZ9Gv-7" value="" style="endArrow=none;dashed=1;html=1;strokeWidth=1;rounded=0;fontFamily=Courier New;fontSize=17;fontColor=default;dashPattern=8 8;" edge="1" parent="1">
          <mxGeometry width="50" height="50" relative="1" as="geometry">
            <mxPoint x="30" y="190" as="sourcePoint" />
            <mxPoint x="80" y="190" as="targetPoint" />
          </mxGeometry>
        </mxCell>
      </root>
    </mxGraphModel>
  </diagram>
</mxfile>
